<svg
	xmlns="http://www.w3.org/2000/svg" 
	xmlns:xlink="http://www.w3.org/1999/xlink" 
	x="0px" y="0px" 
	viewBox="0 0 140 80" 
	style="enable-background:new 0 0 140 80;" 
	xml:space="preserve">
<style type="text/css">
	.st0{fill:url(#SVGID_1_);}
	.st1{fill:url(#SVGID_2_);}
	.st2{fill:url(#SVGID_3_);}
	.st3{fill:url(#SVGID_4_);}
	.st4{fill:url(#SVGID_5_);}
	.st5{fill:url(#SVGID_6_);}
	.st6{fill:url(#SVGID_7_);}
</style>
<linearGradient id="SVGID_1_" gradientUnits="userSpaceOnUse" x1="-9.094947e-13" y1="28.05" x2="140" y2="28.05">
	<stop  offset="0" style="stop-color:#FFB900"/>
	<stop  offset="1" style="stop-color:#00BCFF"/>
</linearGradient>
<path class="st0" d="M95.5,18.3l-0.2-0.1C95.2,18.1,95,18,94.8,18c-0.3,0-0.5,0.1-0.7,0.3L82.8,29.6l8.5,8.5l12-12L95.5,18.3z"/>
<linearGradient id="SVGID_2_" gradientUnits="userSpaceOnUse" x1="-9.094947e-13" y1="28" x2="140" y2="28">
	<stop  offset="0" style="stop-color:#FFB900"/>
	<stop  offset="1" style="stop-color:#00BCFF"/>
</linearGradient>
<path class="st1" d="M57.3,29.5L46,18.3c-0.2-0.2-0.5-0.3-0.7-0.3s-0.4,0-0.5,0.1l-0.2,0.1L36.8,26l12,12L57.3,29.5z"/>
<linearGradient id="SVGID_3_" gradientUnits="userSpaceOnUse" x1="-9.094947e-13" y1="65.25" x2="140" y2="65.25">
	<stop  offset="0" style="stop-color:#FFB900"/>
	<stop  offset="1" style="stop-color:#00BCFF"/>
</linearGradient>
<path class="st2" d="M94.7,67l-14-14l-8.5,8.5l11.3,11.3c1,1,2.1,1.8,3.2,2.5c2.5,1.5,5.3,2.2,8.1,2.2s5.6-0.7,8.1-2.2L94.7,67
	L94.7,67z"/>
<linearGradient id="SVGID_4_" gradientUnits="userSpaceOnUse" x1="-9.094947e-13" y1="32.9162" x2="140" y2="32.9162">
	<stop  offset="0" style="stop-color:#FFB900"/>
	<stop  offset="1" style="stop-color:#00BCFF"/>
</linearGradient>
<path class="st3" d="M114,15.5l-7.8-7.8c-0.2-0.2-0.5-0.5-0.7-0.7c-5.3-4.6-12.8-5.2-18.7-1.8c-1.1,0.7-2.2,1.5-3.2,2.5L72.2,19
	l2.6,2.6l5.9,5.9L92,16.2c0.8-0.8,1.8-1.1,2.8-1.1c0.7,0,1.4,0.2,2,0.5l0.1-0.1l8.5,8.5l13.4,13.4c0.8,0.8,1.1,1.8,1.1,2.8
	s-0.4,2.1-1.1,2.8l-11.3,11.3l5,5l3.5,3.5l11.3-11.3c3.1-3.1,4.7-7.2,4.7-11.3c0-4.1-1.5-8.2-4.6-11.3L114,15.5z"/>
<linearGradient id="SVGID_5_" gradientUnits="userSpaceOnUse" x1="-9.094947e-13" y1="38.2163" x2="140" y2="38.2163">
	<stop  offset="0" style="stop-color:#FFB900"/>
	<stop  offset="1" style="stop-color:#00BCFF"/>
</linearGradient>
<path class="st4" d="M105.4,56.5l-3.5-3.5l-4.5-4.5L81.2,32.2l-8.5-8.5l-2.6-2.6L56.6,7.7c-1-1-2.1-1.8-3.2-2.5
	C47.6,1.8,40,2.4,34.8,7c-0.3,0.2-0.5,0.4-0.7,0.7l-7.8,7.8L12.8,28.9C9.7,32,8.1,36.1,8.1,40.2c0,4.1,1.6,8.2,4.7,11.3l11.3,11.3
	l3.5-3.5l5-5L21.3,43c-0.8-0.8-1.1-1.8-1.1-2.8s0.4-2.1,1.1-2.8L34.7,24l8.5-8.5l0.1,0.1c1.5-0.9,3.6-0.7,4.8,0.6l11.3,11.3l2.1,2.1
	l8.5,8.5l2.1,2.1l8.5,8.5l16.2,16.2L97,65l8.4,8.4c0.3-0.2,0.5-0.4,0.7-0.7l7.8-7.8l-3.5-3.4L105.4,56.5z"/>
<linearGradient id="SVGID_6_" gradientUnits="userSpaceOnUse" x1="-9.094947e-13" y1="59.85" x2="140" y2="59.85">
	<stop  offset="0" style="stop-color:#FFB900"/>
	<stop  offset="1" style="stop-color:#00BCFF"/>
</linearGradient>
<path class="st5" d="M70.1,42.3l-8.5,8.5L45.4,67l-0.1,0.1L40.4,72l-3.2,3.2c2.5,1.5,5.3,2.2,8.1,2.2s5.6-0.8,8.1-2.2
	c1.1-0.7,2.2-1.5,3.2-2.5L70,59.3l8.5-8.5L70.1,42.3z"/>
<linearGradient id="SVGID_7_" gradientUnits="userSpaceOnUse" x1="-9.094947e-13" y1="52.6" x2="140" y2="52.6">
	<stop  offset="0" style="stop-color:#FFB900"/>
	<stop  offset="1" style="stop-color:#00BCFF"/>
</linearGradient>
<path class="st6" d="M43.1,65.1l0.1-0.1l16.2-16.2l8.5-8.5l-8.4-8.6L51,40.2L38.2,53l-3.5,3.5l-5,5L26.2,65l7.8,7.8
	c0.2,0.2,0.5,0.5,0.7,0.7l3.5-3.5L43.1,65.1z"/>
</svg>
